<svg xmlns="http://www.w3.org/2000/svg" xmlns:xlink="http://www.w3.org/1999/xlink" viewBox="230 150 620 500">
  <defs>
    <filter id="ds1" filterUnits="userSpaceOnUse"><feOffset dx="4" dy="4"/><feGaussianBlur result="blur" stdDeviation="3"/><feFlood flood-color="#231f20" flood-opacity=".12"/><feComposite in2="blur" operator="in"/><feComposite in="SourceGraphic"/></filter>
    <filter id="ds2" filterUnits="userSpaceOnUse"><feOffset dx="4" dy="4"/><feGaussianBlur result="blur-2" stdDeviation="3"/><feFlood flood-color="#231f20" flood-opacity=".12"/><feComposite in2="blur-2" operator="in"/><feComposite in="SourceGraphic"/></filter>
  </defs>

  <!-- L piece (coral, top) -->
  <path filter="url(#ds1)" fill="#FD9D7D" stroke="#fff" stroke-width="6" stroke-miterlimit="10" d="M651.95,194.8c.23,1.08.68,2.17.66,3.25-.25,16.43-.55,32.85-.88,49.28-.03,1.73-.34,3.45-.56,5.17-.12.93-.46,1.84-.5,2.77-.07,1.43.1,2.88.05,4.31-.07,2.05-.92,2.71-2.96,2.41-.26-.04-.51-.14-.77-.17-1.98-.27-3.96-.69-5.95-.77-11.27-.47-20.57,3.85-28.23,11.94-6.41,6.76-10.12,14.9-11.71,23.99-.47,2.7-.82,5.68-.19,8.27,1.02,4.18,1.01,8.38,1.4,12.58.1,1.07-.37,1.82-1.34,2.15-1.56.53-3.13,1.14-4.75,1.38-11.47,1.73-22.2,5.44-31.82,12.02-8.31,5.68-15.38,12.6-20.59,21.29-1.4,2.34-2.68,4.76-4.08,7.27-.28-.41-.5-.72-.71-1.03-2.45-3.66-4.71-7.47-7.38-10.97-11.01-14.47-25.39-23.96-43-28.45-3.41-.87-6.94-1.21-10.4-1.91-2.18-.44-2.6-1.22-2.41-3.43.31-3.6.74-7.2.79-10.8.15-12.22-3.34-23.21-11.35-32.64-6.65-7.83-15.12-12.16-25.23-13.38-3.24-.39-6.51-.51-9.77-.67-4.82-.23-5.79-1.07-5.76-5.86.12-17.61.31-35.22.48-52.83.02-1.99.02-3.97.03-5.96.04-.17.09-.34.13-.51,1.1-1.47,2.64-1.62,4.3-1.49,1.52.11,3.04.19,4.56.29,16.25,1.01,32.51,2.01,48.76,3.04.94.06,1.92.19,2.79.53,1.7.67,2.34,2.22,2.84,3.85,2.08,6.88,5.52,12.99,10.45,18.24,6.76,7.19,15.26,11.53,24.46,14.56,4.79,1.58,9.74,2.68,14.83,3.04,10.16.72,19.85-.86,28.85-5.76,10.82-5.89,18-14.99,22.53-26.28,1.96-4.89,2.92-5.72,7.12-5.86l55.29-2.88Z"/>

  <!-- Top connector piece -->
  <path filter="url(#ds2)" fill="#FD9D7D" stroke="#fff" stroke-width="6" stroke-miterlimit="10" d="M588.47,337.11c-18.08,6.08-31.37,17.66-40.03,34.65-1.62,3.18-.63,4.2,2.65,4.16,16.85-.21,25.69.08,42.55,0,2.8-.01,8.48.42,8.46-1.13-.12-10.8,0-20.19-.47-28.86-.63-11.36-3.88-10.73-13.17-8.82Z"/>

  <!-- Top piece flower/person -->
  <path fill="#FD9D7D" stroke="#ff6840" stroke-miterlimit="10" d="M574.34,208.2c-7.32,10.66-17.62,16.39-30.44,17.08-14.09.76-26.03-4.15-35-15.4-2.32-2.91-4.13-5.25,1.99-5.89,5.26-.55,9.66-3.39,11.05-9.13,1.13-4.68-1.18-7.93-4.55-10.89-10.32-9.08-10.28-19.46-.06-28.72,14.64-13.25,40.76-10.84,52.72,4.78,6.49,8.47,5.55,20.55-4.03,25.33-4.58,2.28-8.09,6.09-6.89,11.8,1.24,5.88,5.87,8.4,11.34,9.64,1.19.27,2.6-.24,3.87,1.41Z"/>

  <!-- U piece (slate, bottom-left) -->
  <path fill="#5B6D79" stroke="#103140" stroke-miterlimit="10" d="M302.28,578.67c.26-3.79.54-7.43.75-11.08.63-10.98,1.24-21.96,1.84-32.94.48-8.93.99-17.86,1.35-26.8.08-1.97-.26-4.01-.72-5.94-1.53-6.36-9.99-11.65-17.32-6.49-1.35.95-2.72,1.96-3.79,3.2-5.02,5.76-11.43,7.12-18.54,5.76-14.69-2.81-24.21-17.07-21.49-31.86,2.26-12.32,9.29-20.55,21.12-24.54,8.18-2.75,15.17-.47,21.08,5.62.55.56,1.08,1.15,1.57,1.76,2.06,2.56,4.77,3.43,7.93,2.96,7.41-1.09,11.77-6.15,11.85-13.63.18-16.5.37-33,.57-49.5.05-3.97.07-7.94.19-11.91.06-2.16.81-2.91,2.97-2.99,2.26-.09,4.53.01,6.8.02,9.16.04,18.33.12,27.49.12,5.63,0,11.26-.09,16.88-.16,3.99-.05,5.37,1.04,6.83,4.74,1.67,4.25,3.26,8.59,5.5,12.55,7.04,12.47,17.95,19.59,31.96,21.96,13.09,2.21,25.74.6,37.72-5.23,10.03-4.87,17.76-12.25,23.08-22.06,1.43-2.64,3.41-3.8,6.42-3.77,16.8.14,33.6.17,50.4.24,1.31,0,2.62-.05,3.92.01,1.99.09,2.87.94,2.89,2.95.04,3.97-.02,7.95-.02,11.92,0,6.81,0,13.62,0,20.43,0,3.71.06,7.42.04,11.14,0,2.36-.82,3.05-3.19,2.69-11.79-1.82-22.01,1.53-30.76,9.48-12.32,11.19-15.72,28.01-8.89,43.45,6.32,14.29,19.54,22.47,35.41,21.9,1.61-.06,3.22-.26,4.83-.32,2.29-.08,3.08.67,3.11,3,.04,2.66,0,5.33-.03,7.99-.04,3.1-.14,6.2-.15,9.29-.03,13.23-.04,26.47-.06,39.7,0,2.77-.75,3.38-3.45,2.64-10.35-2.83-20.83-5.08-31.41-6.82-8.34-1.37-16.71-2.62-25.07-3.85-2.53-.37-4.29-1.45-5.06-4.01-4.97-16.67-16.39-26.76-32.83-31.16-16.28-4.35-31.86-2.25-46.2,6.87-9.12,5.8-15.49,13.99-19.36,24.07-1.2,3.13-3.22,4.74-6.48,5.24-12.46,1.92-24.74,4.68-36.97,7.71-7.02,1.74-14.03,3.52-21.05,5.28-.5.12-1,.23-1.64.38Z"/>

  <!-- U piece inner elements -->
  <path fill="#5B6D79" stroke="#103140" stroke-miterlimit="10" d="M451.65,555.68c-1.89.36-3.7.6-5.45,1.06-4.44,1.15-8.01,3.43-9.64,7.99-1.47,4.12-.55,7.77,2.7,10.68,1.04.93,2.23,1.68,3.27,2.6,1.63,1.44,3.41,2.77,4.75,4.46,3.83,4.81,3.93,10.11,1.28,15.48-3.79,7.69-10.04,12.69-17.99,15.45-11.77,4.08-23.16,3.33-33.82-3.55-3.08-1.98-5.62-4.57-7.68-7.59-4.89-7.16-4.27-14.71,1.75-20.96,1.42-1.47,3-2.79,4.55-4.14,2.92-2.54,4.76-5.47,3.57-9.54-1.25-4.29-3.78-7.32-8.3-8.36-.93-.21-1.89-.31-2.83-.51-2.32-.51-2.79-1.58-1.59-3.67,2.54-4.39,6-7.89,10.21-10.69,14.26-9.48,33.84-9,47.28,1.17,3.57,2.7,6.28,6.13,7.92,10.09Z"/>
  <path fill="#5B6D79" stroke="#103140" stroke-miterlimit="10" d="M419.62,409.2c-10.75-.09-19.76-2.96-27.22-9.93-1.46-1.36-2.8-2.88-4.05-4.44-1.25-1.56-.92-2.67.91-3.49.79-.35,1.67-.5,2.47-.83,1.68-.7,3.48-1.24,4.98-2.22,5.27-3.47,6.07-9.73,1.9-14.46-1.26-1.43-2.78-2.64-4.16-3.97-2.4-2.3-4.6-4.81-4.62-8.34-.01-1.87.33-3.84.97-5.61,2.45-6.8,7.36-11.24,14.03-13.7,7.74-2.85,15.74-4.29,24-3.28,8.96,1.09,15.99,5.55,20.99,13,4.06,6.05,2.88,12.24-2.9,17.68-1.52,1.43-3.03,2.93-4.2,4.63-3.53,5.18-2.33,10.59,2.98,13.95,1.17.74,2.48,1.26,3.74,1.85.55.26,1.15.41,1.71.65,1.74.75,2.07,1.59.8,2.96-2.45,2.64-4.91,5.33-7.68,7.63-5.72,4.75-12.57,6.81-19.85,7.59-1.82.2-3.65.25-4.79.33Z"/>
  <path fill="#5B6D79" stroke="#103140" stroke-miterlimit="10" d="M577.37,475.73c-.86,9.46-4.11,18.01-13.51,23.1-5.76,3.12-11.12,2.52-16.18-1.52-.61-.49-1.21-1-1.83-1.49-5.39-4.21-11.29-4.11-16.66.13-1.73,1.37-3.58,2.66-5.55,3.66-3.98,2.02-8.04,1.82-11.89-.39-9.25-5.3-13.47-13.5-13.23-23.99.18-8.14,3.25-15.03,9.89-20.03,6.79-5.12,14.39-4.56,20.48,1.38.47.46.94.91,1.44,1.34,5.16,4.44,10.52,4.51,15.9.34,1.75-1.35,3.58-2.68,5.57-3.63,7.9-3.77,15.83-1.6,20.82,5.59,3.11,4.5,4.6,9.54,4.77,15.5Z"/>
  <path fill="#5B6D79" stroke="#103140" stroke-miterlimit="10" d="M476.74,357.87c.16-3.79.3-8.76.61-13.72.1-1.68.48-3.38,1.01-4.97.74-2.23,2.22-3.16,4.58-3.15,4.67.02,9,1.41,13.23,3.23,15.39,6.61,26.65,17.57,34.23,32.42,1.61,3.16.73,4.32-2.84,4.3-10.03-.05-20.07.03-30.1.03-6.15,0-12.3-.03-18.45-.14-2.14-.04-2.27-.32-2.27-2.4,0-4.8,0-9.61,0-15.6Z"/>

  <!-- R piece (teal, bottom-right) -->
  <path fill="#5BB9B0" stroke="#349c95" stroke-miterlimit="10" d="M771.2,579.63c-11.68-2.96-22.72-5.93-33.84-8.53-8.67-2.03-17.42-3.8-26.2-5.28-3.08-.52-4.61-1.61-5.72-4.56-14.94-39.68-66.04-42.05-87.82-19.54-5.05,5.22-8.94,11.05-10.78,18.03-.77,2.93-2,4.24-4.98,4.64-19.1,2.56-38.16,5.41-56.8,10.44-2.69.72-3.49.16-3.48-2.64.11-18.72.21-37.44.02-56.15-.04-3.84,1.34-4,4.49-3.63,20.76,2.44,37.52-9.78,41.88-30.33,3.91-18.4-7.66-37.45-26.43-43.41-5.12-1.62-10.42-1.64-15.67-.98-2.68.34-3.41-.21-3.37-3.01.22-13.98.3-27.97.18-41.95-.03-3.03.54-4.13,3.82-4.09,17.99.18,35.99.2,53.98.07,2.84-.02,4.38,1.1,5.58,3.36,13.3,25.03,41.27,31.85,62.41,27.75,18.94-3.67,30.5-16.04,36.27-33.97,1.24-3.84,2.83-4.9,6.74-4.83,16.71.3,33.44.36,50.15.16,3.57-.04,4.13,1.03,4.13,4.23,0,19.99.12,39.99.39,59.98.1,7.2,3.1,11.23,9.14,13.32,3.9,1.35,7.8,1.2,10.55-2.1,6.79-8.14,15.05-10.71,24.83-6.69,10.74,4.43,17.17,12.83,18.98,24.18,2.58,16.21-9.08,30.92-24.69,31.76-5.68.31-10.71-1.1-14.77-5.54-5.25-5.75-10.24-7.35-15.39-4.97-5.98,2.77-7.51,8.22-7.26,14.13.83,19.61,1.89,39.21,2.89,58.81.18,3.59.47,7.18.75,11.35Z"/>
  <path fill="#5BB9B0" stroke="#349c95" stroke-miterlimit="10" d="M622.72,554.82c3.43-7.69,9.44-11.69,16.12-14.66,16.79-7.48,39.09-1.44,48.32,12.82,1.81,2.79,3.2,4.85-2.03,5.43-5.05.56-8.51,3.72-9.84,8.92-1.27,5.01,1.8,7.79,5.11,10.52,10.24,8.47,10.68,18.56,1.23,27.89-14.56,14.37-42.43,11.71-53.96-5.16-6.14-8.98-4.68-17.36,4.21-23.42,4.14-2.82,7.54-6.1,6.42-11.57-1.19-5.84-5.47-8.73-11.01-9.99-1.22-.28-2.47-.42-4.58-.78Z"/>
  <path fill="#5BB9B0" stroke="#349c95" stroke-miterlimit="10" d="M642.72,408.35c-6.84-1.67-14.09-6.21-19.76-13.25-1.52-1.89-2.1-2.88,1.18-3.94,11.02-3.55,12.77-12.5,4.23-20.15-7.44-6.66-8.01-13.87-1.31-21.29,10.37-11.48,23.54-11.66,37.17-8.28,7.9,1.96,15,5.63,18.74,13.6,3.16,6.73,2.25,11.07-3.18,16.02-1.6,1.46-3.38,2.83-4.64,4.55-4.49,6.16-1.24,13.77,7.57,15.99,6.36,1.6,3.91,3.65,1.38,6.49-9.31,10.42-24.62,14.61-41.38,10.26Z"/>

  <!-- R piece connector dot -->
  <path filter="url(#ds1)" fill="#5BB9B0" stroke="#349c95" stroke-miterlimit="10" d="M663.72,452.27c4.1,1.57,6.91,3.66,6.8,8-.11,4.45-3.06,6.68-6.93,6.98-5.03.39-10.12-.08-15.18-.13-2.17-.02-2.53-1.25-2.73-3.14-1.17-11.32-1.22-11.33,10.38-11.68,2.71-.08,5.42-.03,7.66-.04Z"/>

  <!-- Leaf accents -->
  <path fill="#5BB9B0" stroke="#349c95" stroke-miterlimit="10" d="M680.28,261.24c1.52.08,2.52.24,2.55,2.39.33,21.14-5.82,40.68-27.78,50.67-11.78,5.36-24.77,6.29-37.35,8.52-3.88.69-1.49-3.78-3.16-5.16,3.57-4.52,6.54-9.48,11.15-13.2,11.67-9.41,23.77-18.25,35.74-27.27,6.55-4.94,13.73-9.28,18.85-15.95Z"/>
  <path fill="#5BB9B0" stroke="#349c95" stroke-miterlimit="10" d="M680.28,261.24c-5.12,6.68-12.31,11.02-18.85,15.95-11.96,9.02-24.06,17.86-35.74,27.27-4.61,3.72-7.58,8.68-11.15,13.2-6.09-15.83-5.04-30.53,8.13-41.77,4.25-3.63,9.38-5.07,14.74-2.87,6.57,2.69,11.46,1.23,16.67-3.66,7.18-6.74,16.35-9.02,26.21-8.12Z"/>
  <path fill="#5BB9B0" stroke="#349c95" stroke-miterlimit="10" d="M463.97,314.56c-3.25,8.77-3.24,8.73-12.94,6.67-11.82-2.51-23.37-5.77-32.91-13.61-13.28-10.91-18.53-25.66-19.52-42.31-.05-.9-.13-1.8-.19-2.71,1.02.3,2.15.4,3.04.92,18.91,11.14,36.28,24.24,51.42,40.24,3.53,3.73,5.79,8.87,11.1,10.8Z"/>
  <path fill="#5BB9B0" stroke="#349c95" stroke-miterlimit="10" d="M463.97,314.56c-5.31-1.92-7.56-7.06-11.1-10.8-15.15-16-32.51-29.09-51.42-40.24-.89-.52-2.02-.62-3.04-.92-1.05-6.05.05-7.28,5.52-5.53,8.42,2.69,16.96,4.99,23.65,11.58,2.93,2.89,6.52,5.31,11.73,3.84,11.83-3.34,22.83,3.22,26.01,15.53,2.28,8.84,2.73,17.88-1.35,26.53Z"/>

  <!-- L, U, R Letters -->
  <text x="540" y="265" font-family="Montserrat, sans-serif" font-weight="800" font-size="68" fill="white" text-anchor="middle" opacity="0.95">L</text>
  <text x="400" y="488" font-family="Montserrat, sans-serif" font-weight="800" font-size="68" fill="white" text-anchor="middle" opacity="0.95">U</text>
  <text x="680" y="488" font-family="Montserrat, sans-serif" font-weight="800" font-size="68" fill="white" text-anchor="middle" opacity="0.95">R</text>
</svg>
