<?xml version="1.0" encoding="UTF-8"?><svg id="Layer_1" xmlns="http://www.w3.org/2000/svg" xmlns:xlink="http://www.w3.org/1999/xlink" viewBox="0 0 1080 1044.25"><defs><style>.cls-1,.cls-2,.cls-3,.cls-4,.cls-5,.cls-6{stroke-miterlimit:10;}.cls-1,.cls-2,.cls-3,.cls-5{stroke:#349c95;}.cls-1,.cls-3,.cls-5,.cls-7{fill:#5cb9af;}.cls-8{fill:#103140;}.cls-8,.cls-9,.cls-7{stroke-width:0px;}.cls-9{fill:#000;}.cls-2{fill:none;}.cls-3{filter:url(#drop-shadow-1);}.cls-4{fill:#5b6d79;stroke:#103140;}.cls-5{filter:url(#drop-shadow-2);}.cls-6{fill:#fe9d7d;stroke:#ff6840;}</style><filter id="drop-shadow-1" filterUnits="userSpaceOnUse"><feOffset dx="7" dy="7"/><feGaussianBlur result="blur" stdDeviation="5"/><feFlood flood-color="#231f20" flood-opacity=".15"/><feComposite in2="blur" operator="in"/><feComposite in="SourceGraphic"/></filter><filter id="drop-shadow-2" filterUnits="userSpaceOnUse"><feOffset dx="7" dy="7"/><feGaussianBlur result="blur-2" stdDeviation="5"/><feFlood flood-color="#231f20" flood-opacity=".15"/><feComposite in2="blur-2" operator="in"/><feComposite in="SourceGraphic"/></filter></defs><path class="cls-8" d="M401.73,779.52c2.1-.54,3.02-2.38,4.79-1.37,1.62.92,5.83,8.56,6.87,10.49,5.25,9.77,13.28,15.56,24.35,17.06,4.87.66,9.56.05,13.85-2.27,2.38-1.28,3.68-.9,5.08,1.31,1.23,1.95,2.79,3.72,4.41,5.38,1.49,1.53,1.64,2.37-.44,3.56-9.6,5.48-19.66,7.46-30.51,4.5-15.21-4.46-28.38-20.98-34.25-35.53"/><path class="cls-8" d="M397.04,741.89c-2.41-5.2-8.1-7.64-15.81-7.64-5.05,0-8.28.39-9.83.78v31.04l-15.79-.38v-41.65c5.95-1.04,14.88-1.81,24.07-1.81,12.55,0,14.88.3,22.22,3.93l3.47,2.64c1.11.91,2.64,2.36,4.01,4.47,2.5,3.84,2.95,7.48,3.23,10.03.31,2.79.49,6.31-.77,8.87-.63,1.28-2.36,4.48-2.96,5.06"/><path class="cls-8" d="M371.4,764.12c-.5,19.64-.13,18.07-.54,37.71-.1,5.08-.16,10.17-.1,15.25.02,2.19-.48,3.08-2.81,2.9-3.91-.3-7.86-.15-11.8-.2-1.9-.13-1.54-1.62-1.52-2.85.16-10.63.79-43.34.98-53.97"/><polyline class="cls-8" points="395.85 782.65 392.36 770.89 399.26 768.91 403.95 768.71 409.06 781.09"/><path class="cls-8" d="M340.26,812.47c-5.93,2.21-17.52,5.24-29.93,5.24-15.73,0-27.59-4-36.42-12.41-8.28-7.86-13.1-20.14-12.97-34.21,0-29.38,20.97-48.28,51.73-48.28,11.45,0,20.42,2.35,24.69,4.41l-3.72,13.66c-5.1-2.21-11.31-4-21.11-4-19.86,0-33.8,11.73-33.8,33.38s12.97,33.66,32.28,33.66c6.07,0,10.62-.83,12.83-1.93v-23.17h-16.42v-13.38h32.83v47.04Z"/><path class="cls-8" d="M538.75,765.06c0,31.34-18.5,49.22-43.62,49.22s-41.87-20.11-41.87-47.56,17.56-48.95,43.22-48.95,42.27,20.66,42.27,47.28ZM470.82,766.45c0,19,9.32,34.11,25.26,34.11s25.12-15.25,25.12-34.8c0-17.61-8.51-34.25-25.12-34.25s-25.26,15.67-25.26,34.94Z"/><path class="cls-8" d="M564.66,811.33l-20.71-85.25h16.44l8.03,38.7c2.13,10.37,4.14,21.25,5.52,29.72h.25c1.38-8.98,3.77-19.1,6.15-29.85l9.16-38.58h16.19l8.41,39.21c2.13,10.12,3.89,19.6,5.15,28.84h.25c1.51-9.36,3.51-19.1,5.77-29.47l8.79-38.58h15.69l-22.72,85.25h-16.57l-8.79-40.09c-2.13-9.74-3.64-17.83-4.65-27.07h-.25c-1.51,9.11-3.14,17.33-5.65,27.07l-9.79,40.09h-16.7Z"/><path class="cls-8" d="M684.85,738.84h-25.93v-13.15h68.74v13.15h-26.2v72.88h-16.61v-72.88Z"/><path class="cls-8" d="M750.69,726.09v34.3h34.48v-34.3h14.88v85.63h-14.88v-37.74h-34.48v37.74h-14.88v-85.63h14.88Z"/><path class="cls-7" d="M404.78,769.54c5.14-4.83,11.39-4.3,16.64-2.01,7.81-.12,1.47.37.79,1.65-.4.76.85.44,1.36.43,2.21-.07.81-.83-.23,1.18-3.01,5.85-6.08,10.29-12.87,10.46-3.82.1-7.03-1.5-9.98-3.71-.69-.51-.75-.97-.34-1.75,1.25-2.4,2.61-4.71,4.63-6.25Z"/><path class="cls-2" d="M404.78,769.54c5.14-4.83,11.39-4.3,16.64-2.01,7.81-.12,1.47.37.79,1.65-.4.76.85.44,1.36.43,2.21-.07.81-.83-.23,1.18-3.01,5.85-6.08,10.29-12.87,10.46-3.82.1-7.03-1.5-9.98-3.71-.69-.51-.75-.97-.34-1.75,1.25-2.4,2.61-4.71,4.63-6.25Z"/><path class="cls-1" d="M399.79,770.57c-.66.54-1.01-.09-1.22-.61-1.63-3.97-3.93-7.7-4.66-11.99-1.38-8.13,3.64-15.99,12.85-20.25l-6.96,32.85Z"/><path class="cls-7" d="M399.26,770.44c.33.78.94.39,1.37.03,3.29-2.76,7.06-5,9.7-8.46,5-6.56,4.2-15.85-1.98-23.9l-9.09,32.33Z"/><path class="cls-2" d="M399.26,770.44c.33.78.94.39,1.37.03,3.29-2.76,7.06-5,9.7-8.46,5-6.56,4.2-15.85-1.98-23.9l-9.09,32.33Z"/><path class="cls-7" d="M395.14,777.58q-1.2,1.77-3.24.78c-2.49-1.2-4.88-2.56-6.57-4.83-2.36-3.15-2.71-6.72-2.02-10.48.04-.2.07-.41.1-.61.21.12.46.21.63.37,3.6,3.51,6.74,7.38,9.23,11.76.58,1.02.8,2.29,1.88,3.01Z"/><path class="cls-2" d="M395.14,777.58q-1.2,1.77-3.24.78c-2.49-1.2-4.88-2.56-6.57-4.83-2.36-3.15-2.71-6.72-2.02-10.48.04-.2.07-.41.1-.61.21.12.46.21.63.37,3.6,3.51,6.74,7.38,9.23,11.76.58,1.02.8,2.29,1.88,3.01Z"/><path class="cls-7" d="M395.14,777.58c-1.08-.72-1.3-1.98-1.88-3.01-2.49-4.39-5.64-8.25-9.23-11.76-.17-.16-.42-.25-.63-.37.1-1.4.41-1.62,1.53-.93,1.73,1.06,3.5,2.04,4.63,3.87.49.8,1.16,1.54,2.4,1.5,2.81-.09,4.9,1.97,4.93,4.88.02,2.09-.37,4.12-1.75,5.83Z"/><path class="cls-2" d="M395.14,777.58c-1.08-.72-1.3-1.98-1.88-3.01-2.49-4.39-5.64-8.25-9.23-11.76-.17-.16-.42-.25-.63-.37.1-1.4.41-1.62,1.53-.93,1.73,1.06,3.5,2.04,4.63,3.87.49.8,1.16,1.54,2.4,1.5,2.81-.09,4.9,1.97,4.93,4.88.02,2.09-.37,4.12-1.75,5.83Z"/><path class="cls-7" d="M399.54,776.44c-.39.62.12.92.54,1.08,3.09,2.09,6.25,3.22,9.66,3.69,6.64.18,12.4-4.04,15.3-12.61l-25.51,7.84Z"/><path class="cls-2" d="M399.54,776.44c-.39.62.12.92.54,1.08,3.09,2.09,6.25,3.22,9.66,3.69,6.64.18,12.4-4.04,15.3-12.61l-25.51,7.84Z"/><path class="cls-9" d="M320.19,697.19l2.86-6.34c3.07,2.24,7.64,3.8,12.01,3.8,4.99,0,7.02-1.66,7.02-3.9,0-6.81-21.16-2.13-21.16-15.65,0-6.19,4.99-11.34,15.34-11.34,4.58,0,9.26,1.09,12.64,3.22l-2.6,6.4c-3.38-1.92-6.87-2.86-10.09-2.86-4.99,0-6.92,1.87-6.92,4.16,0,6.71,21.17,2.08,21.17,15.45,0,6.08-5.04,11.28-15.45,11.28-5.77,0-11.6-1.72-14.82-4.21Z"/><path class="cls-9" d="M381.45,671.24h-11.65v-6.86h31.72v6.86h-11.65v29.54h-8.42v-29.54Z"/><path class="cls-9" d="M447.44,700.78l-7.02-10.14h-7.75v10.14h-8.42v-36.4h15.76c9.72,0,15.81,5.04,15.81,13.21,0,5.46-2.76,9.46-7.49,11.49l8.16,11.7h-9.05ZM439.53,671.24h-6.86v12.69h6.86c5.15,0,7.75-2.39,7.75-6.34s-2.6-6.34-7.75-6.34Z"/><path class="cls-9" d="M504.64,692.98h-16.9l-3.22,7.8h-8.63l16.22-36.4h8.32l16.28,36.4h-8.84l-3.22-7.8ZM501.99,686.58l-5.77-13.94-5.77,13.94h11.54Z"/><path class="cls-9" d="M544.42,671.24h-11.65v-6.86h31.72v6.86h-11.65v29.54h-8.42v-29.54Z"/><path class="cls-9" d="M615.4,694.02v6.76h-28.18v-36.4h27.51v6.76h-19.14v7.9h16.9v6.55h-16.9v8.42h19.81Z"/><path class="cls-9" d="M664.8,682h7.7v14.77c-4,3.02-9.52,4.63-14.72,4.63-11.44,0-19.86-7.85-19.86-18.83s8.42-18.82,20.02-18.82c6.4,0,11.7,2.18,15.24,6.29l-5.41,4.99c-2.65-2.81-5.72-4.11-9.41-4.11-7.07,0-11.91,4.73-11.91,11.65s4.84,11.65,11.8,11.65c2.29,0,4.42-.42,6.55-1.56v-10.66Z"/><path class="cls-9" d="M698.49,664.38h8.42v36.4h-8.42v-36.4Z"/><path class="cls-9" d="M731.46,682.58c0-10.97,8.42-18.82,19.76-18.82,6.29,0,11.54,2.29,14.98,6.45l-5.41,4.99c-2.44-2.81-5.51-4.26-9.15-4.26-6.81,0-11.65,4.79-11.65,11.65s4.84,11.65,11.65,11.65c3.64,0,6.71-1.46,9.15-4.32l5.41,4.99c-3.43,4.21-8.68,6.5-15.03,6.5-11.29,0-19.71-7.85-19.71-18.83Z"/><path class="cls-9" d="M288.15,839.19h8.42v36.4h-8.42v-36.4Z"/><path class="cls-9" d="M356.79,839.19v36.4h-6.92l-18.15-22.1v22.1h-8.32v-36.4h6.97l18.1,22.1v-22.1h8.32Z"/><path class="cls-9" d="M417,839.19v36.4h-6.92l-18.15-22.1v22.1h-8.32v-36.4h6.97l18.1,22.1v-22.1h8.32Z"/><path class="cls-9" d="M441.54,857.39c0-10.82,8.42-18.82,19.92-18.82s19.92,7.96,19.92,18.82-8.48,18.83-19.92,18.83-19.92-8.01-19.92-18.83ZM472.85,857.39c0-6.92-4.89-11.65-11.39-11.65s-11.39,4.73-11.39,11.65,4.89,11.65,11.39,11.65,11.39-4.73,11.39-11.65Z"/><path class="cls-9" d="M539.72,839.19l-15.76,36.4h-8.32l-15.7-36.4h9.1l11.08,26,11.23-26h8.37Z"/><path class="cls-9" d="M583.71,867.79h-16.9l-3.22,7.8h-8.63l16.22-36.4h8.32l16.28,36.4h-8.84l-3.22-7.8ZM581.06,861.4l-5.77-13.94-5.77,13.94h11.54Z"/><path class="cls-9" d="M623.49,846.06h-11.65v-6.86h31.72v6.86h-11.65v29.54h-8.42v-29.54Z"/><path class="cls-9" d="M663.48,857.39c0-10.82,8.42-18.82,19.92-18.82s19.92,7.96,19.92,18.82-8.48,18.83-19.92,18.83-19.92-8.01-19.92-18.83ZM694.78,857.39c0-6.92-4.89-11.65-11.39-11.65s-11.39,4.73-11.39,11.65,4.89,11.65,11.39,11.65,11.39-4.73,11.39-11.65Z"/><path class="cls-9" d="M751.05,875.59l-7.02-10.14h-7.75v10.14h-8.42v-36.4h15.76c9.72,0,15.81,5.04,15.81,13.21,0,5.46-2.76,9.46-7.49,11.49l8.16,11.7h-9.05ZM743.14,846.06h-6.86v12.69h6.86c5.15,0,7.75-2.39,7.75-6.34s-2.6-6.34-7.75-6.34Z"/><path class="cls-9" d="M781.41,872.01l2.86-6.34c3.07,2.24,7.64,3.8,12.01,3.8,4.99,0,7.02-1.66,7.02-3.9,0-6.81-21.17-2.13-21.17-15.65,0-6.19,4.99-11.34,15.34-11.34,4.58,0,9.26,1.09,12.64,3.22l-2.6,6.4c-3.38-1.92-6.86-2.86-10.09-2.86-4.99,0-6.92,1.87-6.92,4.16,0,6.71,21.16,2.08,21.16,15.45,0,6.08-5.04,11.28-15.44,11.28-5.77,0-11.6-1.72-14.82-4.21Z"/><path class="cls-1" d="M680.28,261.24c1.52.08,2.52.24,2.55,2.39.33,21.14-5.82,40.68-27.78,50.67-11.78,5.36-24.77,6.29-37.35,8.52-3.88.69-1.49-3.78-3.16-5.16,3.57-4.52,6.54-9.48,11.15-13.2,11.67-9.41,23.77-18.25,35.74-27.27,6.55-4.94,13.73-9.28,18.85-15.95Z"/><path class="cls-1" d="M680.28,261.24c-5.12,6.68-12.31,11.02-18.85,15.95-11.96,9.02-24.06,17.86-35.74,27.27-4.61,3.72-7.58,8.68-11.15,13.2-6.09-15.83-5.04-30.53,8.13-41.77,4.25-3.63,9.38-5.07,14.74-2.87,6.57,2.69,11.46,1.23,16.67-3.66,7.18-6.74,16.35-9.02,26.21-8.12Z"/><path class="cls-1" d="M463.97,314.56c-3.25,8.77-3.24,8.73-12.94,6.67-11.82-2.51-23.37-5.77-32.91-13.61-13.28-10.91-18.53-25.66-19.52-42.31-.05-.9-.13-1.8-.19-2.71,1.02.3,2.15.4,3.04.92,18.91,11.14,36.28,24.24,51.42,40.24,3.53,3.73,5.79,8.87,11.1,10.8Z"/><path class="cls-1" d="M463.97,314.56c-5.31-1.92-7.56-7.06-11.1-10.8-15.15-16-32.51-29.09-51.42-40.24-.89-.52-2.02-.62-3.04-.92-1.05-6.05.05-7.28,5.52-5.53,8.42,2.69,16.96,4.99,23.65,11.58,2.93,2.89,6.52,5.31,11.73,3.84,11.83-3.34,22.83,3.22,26.01,15.53,2.28,8.84,2.73,17.88-1.35,26.53Z"/><path class="cls-6" d="M574.34,208.2c-7.32,10.66-17.62,16.39-30.44,17.08-14.09.76-26.03-4.15-35-15.4-2.32-2.91-4.13-5.25,1.99-5.89,5.26-.55,9.66-3.39,11.05-9.13,1.13-4.68-1.18-7.93-4.55-10.89-10.32-9.08-10.28-19.46-.06-28.72,14.64-13.25,40.76-10.84,52.72,4.78,6.49,8.47,5.55,20.55-4.03,25.33-4.58,2.28-8.09,6.09-6.89,11.8,1.24,5.88,5.87,8.4,11.34,9.64,1.19.27,2.6-.24,3.87,1.41Z"/><path class="cls-1" d="M771.2,579.63c-11.68-2.96-22.72-5.93-33.84-8.53-8.67-2.03-17.42-3.8-26.2-5.28-3.08-.52-4.61-1.61-5.72-4.56-14.94-39.68-66.04-42.05-87.82-19.54-5.05,5.22-8.94,11.05-10.78,18.03-.77,2.93-2,4.24-4.98,4.64-19.1,2.56-38.16,5.41-56.8,10.44-2.69.72-3.49.16-3.48-2.64.11-18.72.21-37.44.02-56.15-.04-3.84,1.34-4,4.49-3.63,20.76,2.44,37.52-9.78,41.88-30.33,3.91-18.4-7.66-37.45-26.43-43.41-5.12-1.62-10.42-1.64-15.67-.98-2.68.34-3.41-.21-3.37-3.01.22-13.98.3-27.97.18-41.95-.03-3.03.54-4.13,3.82-4.09,17.99.18,35.99.2,53.98.07,2.84-.02,4.38,1.1,5.58,3.36,13.3,25.03,41.27,31.85,62.41,27.75,18.94-3.67,30.5-16.04,36.27-33.97,1.24-3.84,2.83-4.9,6.74-4.83,16.71.3,33.44.36,50.15.16,3.57-.04,4.13,1.03,4.13,4.23,0,19.99.12,39.99.39,59.98.1,7.2,3.1,11.23,9.14,13.32,3.9,1.35,7.8,1.2,10.55-2.1,6.79-8.14,15.05-10.71,24.83-6.69,10.74,4.43,17.17,12.83,18.98,24.18,2.58,16.21-9.08,30.92-24.69,31.76-5.68.31-10.71-1.1-14.77-5.54-5.25-5.75-10.24-7.35-15.39-4.97-5.98,2.77-7.51,8.22-7.26,14.13.83,19.61,1.89,39.21,2.89,58.81.18,3.59.47,7.18.75,11.35ZM697.17,504.35c-6.05-7.45-11.19-13.96-16.55-20.28-1.95-2.3-2.17-3.69.61-5.44,3.75-2.36,6.56-5.63,8.17-9.9,5.98-15.86-5.12-32.75-22.29-33.34-12.69-.44-25.41-.09-38.11-.41-3.71-.09-3.6,1.72-3.53,4.32.49,18.33.78,36.66,1.39,54.99.3,8.93.55,8.92,9.59,9.28,10.92.44,10.78.44,10.59-10.51-.21-11.78-1.27-8.69,9.47-9.05,2.43-.08,3.47,1.37,4.68,3.06,3.38,4.73,6.91,9.35,10.35,14.03.99,1.35,1.94,2.63,3.84,2.68,6.83.17,13.67.36,21.79.58Z"/><path class="cls-1" d="M622.72,554.82c3.43-7.69,9.44-11.69,16.12-14.66,16.79-7.48,39.09-1.44,48.32,12.82,1.81,2.79,3.2,4.85-2.03,5.43-5.05.56-8.51,3.72-9.84,8.92-1.27,5.01,1.8,7.79,5.11,10.52,10.24,8.47,10.68,18.56,1.23,27.89-14.56,14.37-42.43,11.71-53.96-5.16-6.14-8.98-4.68-17.36,4.21-23.42,4.14-2.82,7.54-6.1,6.42-11.57-1.19-5.84-5.47-8.73-11.01-9.99-1.22-.28-2.47-.42-4.58-.78Z"/><path class="cls-1" d="M642.72,408.35c-6.84-1.67-14.09-6.21-19.76-13.25-1.52-1.89-2.1-2.88,1.18-3.94,11.02-3.55,12.77-12.5,4.23-20.15-7.44-6.66-8.01-13.87-1.31-21.29,10.37-11.48,23.54-11.66,37.17-8.28,7.9,1.96,15,5.63,18.74,13.6,3.16,6.73,2.25,11.07-3.18,16.02-1.6,1.46-3.38,2.83-4.64,4.55-4.49,6.16-1.24,13.77,7.57,15.99,6.36,1.6,3.91,3.65,1.38,6.49-9.31,10.42-24.62,14.61-41.38,10.26Z"/><path class="cls-3" d="M663.72,452.27c4.1,1.57,6.91,3.66,6.8,8-.11,4.45-3.06,6.68-6.93,6.98-5.03.39-10.12-.08-15.18-.13-2.17-.02-2.53-1.25-2.73-3.14-1.17-11.32-1.22-11.33,10.38-11.68,2.71-.08,5.42-.03,7.66-.04Z"/><path class="cls-6" d="M651.95,194.8c.23,1.08.68,2.17.66,3.25-.25,16.43-.55,32.85-.88,49.28-.03,1.73-.34,3.45-.56,5.17-.12.93-.46,1.84-.5,2.77-.07,1.43.1,2.88.05,4.31-.07,2.05-.92,2.71-2.96,2.41-.26-.04-.51-.14-.77-.17-1.98-.27-3.96-.69-5.95-.77-11.27-.47-20.57,3.85-28.23,11.94-6.41,6.76-10.12,14.9-11.71,23.99-.47,2.7-.82,5.68-.19,8.27,1.02,4.18,1.01,8.38,1.4,12.58.1,1.07-.37,1.82-1.34,2.15-1.56.53-3.13,1.14-4.75,1.38-11.47,1.73-22.2,5.44-31.82,12.02-8.31,5.68-15.38,12.6-20.59,21.29-1.4,2.34-2.68,4.76-4.08,7.27-.28-.41-.5-.72-.71-1.03-2.45-3.66-4.71-7.47-7.38-10.97-11.01-14.47-25.39-23.96-43-28.45-3.41-.87-6.94-1.21-10.4-1.91-2.18-.44-2.6-1.22-2.41-3.43.31-3.6.74-7.2.79-10.8.15-12.22-3.34-23.21-11.35-32.64-6.65-7.83-15.12-12.16-25.23-13.38-3.24-.39-6.51-.51-9.77-.67-4.82-.23-5.79-1.07-5.76-5.86.12-17.61.31-35.22.48-52.83.02-1.99.02-3.97.03-5.96.04-.17.09-.34.13-.51,1.1-1.47,2.64-1.62,4.3-1.49,1.52.11,3.04.19,4.56.29,16.25,1.01,32.51,2.01,48.76,3.04.94.06,1.92.19,2.79.53,1.7.67,2.34,2.22,2.84,3.85,2.08,6.88,5.52,12.99,10.45,18.24,6.76,7.19,15.26,11.53,24.46,14.56,4.79,1.58,9.74,2.68,14.83,3.04,10.16.72,19.85-.86,28.85-5.76,10.82-5.89,18-14.99,22.53-26.28,1.96-4.89,2.92-5.72,7.12-5.86l55.29-2.88ZM526.99,250.25c-4.55-.73-9.12-.32-13.67-.03-1.19.08-1.9,1-1.95,2.26-.19,5-.55,10.01-.52,15.01.09,14.51.32,29.02.52,43.54.04,2.79.91,3.62,3.77,3.63,11.5.06,23,.13,34.5.14,4.79,0,9.59-.02,14.37-.27,3.52-.19,4.8-1.67,4.85-5.19.04-2.43-.03-4.88-.25-7.3-.19-2.1-1.34-3.63-3.56-3.94-1.98-.28-3.97-.52-5.96-.54-7.76-.07-15.51-.03-23.27-.04-3.33,0-4.47-1.19-4.37-4.25.11-3.68.16-7.37.15-11.05-.02-5.71-.06-11.42-.17-17.13-.07-3.57-.17-7.14-.48-10.69-.2-2.26-1.61-3.71-3.95-4.14Z"/><path class="cls-5" d="M588.47,337.11c-18.08,6.08-31.37,17.66-40.03,34.65-1.62,3.18-.63,4.2,2.65,4.16,16.85-.21,25.69.08,42.55,0,2.8-.01,8.48.42,8.46-1.13-.12-10.8,0-20.19-.47-28.86-.63-11.36-3.88-10.73-13.17-8.82Z"/><path class="cls-4" d="M302.28,578.67c.26-3.79.54-7.43.75-11.08.63-10.98,1.24-21.96,1.84-32.94.48-8.93.99-17.86,1.35-26.8.08-1.97-.26-4.01-.72-5.94-1.53-6.36-9.99-11.65-17.32-6.49-1.35.95-2.72,1.96-3.79,3.2-5.02,5.76-11.43,7.12-18.54,5.76-14.69-2.81-24.21-17.07-21.49-31.86,2.26-12.32,9.29-20.55,21.12-24.54,8.18-2.75,15.17-.47,21.08,5.62.55.56,1.08,1.15,1.57,1.76,2.06,2.56,4.77,3.43,7.93,2.96,7.41-1.09,11.77-6.15,11.85-13.63.18-16.5.37-33,.57-49.5.05-3.97.07-7.94.19-11.91.06-2.16.81-2.91,2.97-2.99,2.26-.09,4.53.01,6.8.02,9.16.04,18.33.12,27.49.12,5.63,0,11.26-.09,16.88-.16,3.99-.05,5.37,1.04,6.83,4.74,1.67,4.25,3.26,8.59,5.5,12.55,7.04,12.47,17.95,19.59,31.96,21.96,13.09,2.21,25.74.6,37.72-5.23,10.03-4.87,17.76-12.25,23.08-22.06,1.43-2.64,3.41-3.8,6.42-3.77,16.8.14,33.6.17,50.4.24,1.31,0,2.62-.05,3.92.01,1.99.09,2.87.94,2.89,2.95.04,3.97-.02,7.95-.02,11.92,0,6.81,0,13.62,0,20.43,0,3.71.06,7.42.04,11.14,0,2.36-.82,3.05-3.19,2.69-11.79-1.82-22.01,1.53-30.76,9.48-12.32,11.19-15.72,28.01-8.89,43.45,6.32,14.29,19.54,22.47,35.41,21.9,1.61-.06,3.22-.26,4.83-.32,2.29-.08,3.08.67,3.11,3,.04,2.66,0,5.33-.03,7.99-.04,3.1-.14,6.2-.15,9.29-.03,13.23-.04,26.47-.06,39.7,0,2.77-.75,3.38-3.45,2.64-10.35-2.83-20.83-5.08-31.41-6.82-8.34-1.37-16.71-2.62-25.07-3.85-2.53-.37-4.29-1.45-5.06-4.01-4.97-16.67-16.39-26.76-32.83-31.16-16.28-4.35-31.86-2.25-46.2,6.87-9.12,5.8-15.49,13.99-19.36,24.07-1.2,3.13-3.22,4.74-6.48,5.24-12.46,1.92-24.74,4.68-36.97,7.71-7.02,1.74-14.03,3.52-21.05,5.28-.5.12-1,.23-1.64.38ZM433.19,463.64s.06,0,.09,0c0,4.85.01,9.69,0,14.54,0,1.18-.06,2.36-.17,3.53-.68,7.76-6.38,12.22-14.07,11.02-7.11-1.11-11.38-5.86-11.59-12.99-.09-3.14-.09-6.29-.09-9.43,0-7.69.03-15.37.04-23.06,0-3.5-.93-4.41-4.44-4.35-.26,0-.52.03-.78.03-3.75-.09-7.5-.12-11.24-.31-3.06-.16-3.66.33-3.74,3.32-.16,5.41-.38,10.81-.57,16.22-.27,7.82-.3,15.63,1.16,23.35,1.4,7.39,4.85,13.49,11.23,17.73,5.12,3.4,10.82,5.46,16.76,6.74,6.4,1.37,12.68.14,18.8-1.82,9.26-2.97,15.08-9.25,17.5-18.67,1.69-6.6,2.08-13.36,2.04-20.13-.05-7.46-.27-14.92-.4-22.39-.04-2.28-.98-3.38-3.29-3.51-4.61-.25-9.23-.47-13.85-.64-2.16-.08-3.09.81-3.31,3-.08.78-.06,1.57-.07,2.35,0,5.15,0,10.3,0,15.45Z"/><path class="cls-4" d="M451.65,555.68c-1.89.36-3.7.6-5.45,1.06-4.44,1.15-8.01,3.43-9.64,7.99-1.47,4.12-.55,7.77,2.7,10.68,1.04.93,2.23,1.68,3.27,2.6,1.63,1.44,3.41,2.77,4.75,4.46,3.83,4.81,3.93,10.11,1.28,15.48-3.79,7.69-10.04,12.69-17.99,15.45-11.77,4.08-23.16,3.33-33.82-3.55-3.08-1.98-5.62-4.57-7.68-7.59-4.89-7.16-4.27-14.71,1.75-20.96,1.42-1.47,3-2.79,4.55-4.14,2.92-2.54,4.76-5.47,3.57-9.54-1.25-4.29-3.78-7.32-8.3-8.36-.93-.21-1.89-.31-2.83-.51-2.32-.51-2.79-1.58-1.59-3.67,2.54-4.39,6-7.89,10.21-10.69,14.26-9.48,33.84-9,47.28,1.17,3.57,2.7,6.28,6.13,7.92,10.09Z"/><path class="cls-4" d="M419.62,409.2c-10.75-.09-19.76-2.96-27.22-9.93-1.46-1.36-2.8-2.88-4.05-4.44-1.25-1.56-.92-2.67.91-3.49.79-.35,1.67-.5,2.47-.83,1.68-.7,3.48-1.24,4.98-2.22,5.27-3.47,6.07-9.73,1.9-14.46-1.26-1.43-2.78-2.64-4.16-3.97-2.4-2.3-4.6-4.81-4.62-8.34-.01-1.87.33-3.84.97-5.61,2.45-6.8,7.36-11.24,14.03-13.7,7.74-2.85,15.74-4.29,24-3.28,8.96,1.09,15.99,5.55,20.99,13,4.06,6.05,2.88,12.24-2.9,17.68-1.52,1.43-3.03,2.93-4.2,4.63-3.53,5.18-2.33,10.59,2.98,13.95,1.17.74,2.48,1.26,3.74,1.85.55.26,1.15.41,1.71.65,1.74.75,2.07,1.59.8,2.96-2.45,2.64-4.91,5.33-7.68,7.63-5.72,4.75-12.57,6.81-19.85,7.63Z"/><path class="cls-4" d="M577.37,475.73c-.86,9.46-4.11,18.01-13.51,23.1-5.76,3.12-11.12,2.52-16.18-1.52-.61-.49-1.21-1-1.83-1.49-5.39-4.21-11.29-4.11-16.66.13-1.73,1.37-3.58,2.66-5.55,3.66-3.98,2.02-8.04,1.82-11.89-.39-9.25-5.3-13.47-13.5-13.23-23.99.18-8.14,3.25-15.03,9.89-20.03,6.79-5.12,14.39-4.56,20.48,1.38.47.46.94.91,1.44,1.34,5.16,4.44,10.52,4.51,15.9.34,1.75-1.35,3.58-2.68,5.57-3.63,7.9-3.77,15.83-1.6,20.82,5.59,3.11,4.5,4.6,9.54,4.77,15.5Z"/><path class="cls-4" d="M476.74,357.87c.16-3.79.3-8.76.61-13.72.1-1.68.48-3.38,1.01-4.97.74-2.23,2.22-3.16,4.58-3.15,4.67.02,9,1.41,13.23,3.23,15.39,6.61,26.65,17.57,34.23,32.42,1.61,3.16.73,4.32-2.84,4.3-10.03-.05-20.07.03-30.1.03-6.15,0-12.3-.03-18.45-.14-2.14-.04-2.27-.32-2.27-2.4,0-4.8,0-9.61,0-15.6Z"/></svg>