<svg id="Layer_1" data-name="Layer 1" xmlns="http://www.w3.org/2000/svg" viewBox="0 0 428.69 188.65"><defs><style>.cls-1{fill:#ff5100;}.cls-2{fill:none;stroke:#ff4438;stroke-linecap:round;stroke-miterlimit:10;stroke-width:14.69px;stroke-dasharray:0.34 22.04;}.cls-3{fill:#fff;}</style></defs><path class="cls-1" d="M16.38,309.16a.92.92,0,0,1-.28-.05.83.83,0,0,1-.51-1.05.85.85,0,0,1,1.06-.54.82.82,0,0,1,.53,1l0,0A.83.83,0,0,1,16.38,309.16Zm.9-2.72a.86.86,0,0,1-.27-.05.84.84,0,0,1,.55-1.59.81.81,0,0,1,.52,1v0A.83.83,0,0,1,17.28,306.44Zm.91-2.73a.84.84,0,1,1,.28-1.64.82.82,0,0,1,.52,1v0A.84.84,0,0,1,18.19,303.71ZM19.1,301a.77.77,0,0,1-.25,0,.82.82,0,0,1-.54-1,.85.85,0,0,1,1.05-.57.83.83,0,0,1,.55,1v0A.83.83,0,0,1,19.1,301Zm.91-2.72a.86.86,0,0,1-.27,0,.83.83,0,0,1-.52-1.06.85.85,0,0,1,1.07-.53.82.82,0,0,1,.52,1v0A.83.83,0,0,1,20,298.27Zm.91-2.73a.84.84,0,1,1,.27-1.64.82.82,0,0,1,.53,1v0A.85.85,0,0,1,20.92,295.54Z" transform="translate(-15.54 -121.89)"/><path class="cls-1" d="M28.55,310.54a1.12,1.12,0,0,1-1.1-.89,1.14,1.14,0,0,1,.87-1.34,1.09,1.09,0,0,1,1.31.84v.05a1.12,1.12,0,0,1-.87,1.32Zm-.78-3.77a1.11,1.11,0,0,1-1.09-.89,1.14,1.14,0,0,1,.87-1.34,1.1,1.1,0,0,1,1.31.85v.05a1.11,1.11,0,0,1-.87,1.31A.9.9,0,0,1,27.77,306.77ZM27,303a1.11,1.11,0,0,1-1.09-.9,1.13,1.13,0,0,1,.87-1.33,1.08,1.08,0,0,1,1.31.85v.05a1.12,1.12,0,0,1-.88,1.31Zm-.77-3.76a1.13,1.13,0,0,1-1.1-.9A1.14,1.14,0,0,1,26,297a1.1,1.1,0,0,1,1.31.85v.05a1.11,1.11,0,0,1-.87,1.31Zm-.78-3.77a1.11,1.11,0,0,1-1.09-.89,1.14,1.14,0,0,1,.86-1.34,1.11,1.11,0,0,1,1.32.84v.05a1.12,1.12,0,0,1-.87,1.32A.9.9,0,0,1,25.45,295.48Z" transform="translate(-15.54 -121.89)"/><path class="cls-1" d="M47.77,306.6a1.47,1.47,0,0,1-1-.36,1.53,1.53,0,0,1-.2-2.13,1.48,1.48,0,0,1,2.08-.19l.05.05a1.49,1.49,0,0,1-1,2.63Zm-3.94-3.31a1.49,1.49,0,0,1-1-.35,1.52,1.52,0,0,1-.19-2.13,1.46,1.46,0,0,1,2.08-.19l0,0a1.49,1.49,0,0,1-1,2.63ZM39.88,300a1.5,1.5,0,0,1-1-.36,1.52,1.52,0,0,1-.18-2.13,1.47,1.47,0,0,1,2.08-.17l0,0a1.49,1.49,0,0,1-1,2.62Zm-3.94-3.3a1.5,1.5,0,0,1-1-.36,1.52,1.52,0,0,1-.19-2.12,1.47,1.47,0,0,1,2.08-.2l0,.05a1.49,1.49,0,0,1-1,2.63ZM32,293.39a1.48,1.48,0,0,1-1-.36,1.53,1.53,0,0,1-.2-2.13,1.47,1.47,0,0,1,2.08-.19l.06.05a1.49,1.49,0,0,1,.16,2.1A1.46,1.46,0,0,1,32,293.39Z" transform="translate(-15.54 -121.89)"/><path class="cls-1" d="M74,293.85a1.51,1.51,0,0,1-.3,0A2,2,0,0,1,72,291.55a2,2,0,0,1,2.23-1.69l.09,0a2,2,0,0,1-.3,4Zm-6.8-1.08a2,2,0,0,1-.34,0,2,2,0,0,1-1.67-2.32,1.94,1.94,0,0,1,2.26-1.64l.09,0a2,2,0,0,1-.34,4Zm-6.8-1.09a2,2,0,0,1-.34,0,2,2,0,0,1-1.68-2.32,2,2,0,0,1,2.27-1.64l.09,0a2,2,0,0,1-.34,4Zm-6.8-1.09-.3,0a2,2,0,0,1-1.72-2.28,2,2,0,0,1,2.23-1.69h.09a2,2,0,0,1-.3,4Zm-6.8-1.09-.3,0a2,2,0,0,1-1.72-2.28A2,2,0,0,1,47,285.51h.08a2,2,0,0,1-.29,4ZM40,288.41l-.3,0A2,2,0,0,1,38,286.11a2,2,0,0,1,2.23-1.69h.08a2,2,0,0,1-.29,4Z" transform="translate(-15.54 -121.89)"/><path class="cls-1" d="M47.89,280a2.71,2.71,0,0,1-2.68-2.17,2.63,2.63,0,0,1,2.08-3.11l.12,0a2.68,2.68,0,0,1,1,5.26A2.81,2.81,0,0,1,47.89,280Zm9-1.77a2.72,2.72,0,0,1-2.68-2.18A2.62,2.62,0,0,1,56.34,273l.12,0a2.68,2.68,0,0,1,1,5.26A2.92,2.92,0,0,1,56.94,278.27Zm9-1.77a2.73,2.73,0,0,1-2.67-2.13,2.64,2.64,0,0,1,2-3.15l.12,0a2.67,2.67,0,1,1,1.07,5.24A2.51,2.51,0,0,1,66,276.5Zm9-1.78a2.72,2.72,0,0,1-2.68-2.17,2.62,2.62,0,0,1,2.08-3.11l.12,0a2.68,2.68,0,0,1,1,5.26A2.07,2.07,0,0,1,75,274.72Zm9-1.77a2.72,2.72,0,0,1-2.67-2.13,2.62,2.62,0,0,1,2-3.15l.12,0a2.68,2.68,0,1,1,1.08,5.24A2.64,2.64,0,0,1,84.08,273Zm9-1.78A2.71,2.71,0,0,1,90.45,269a2.61,2.61,0,0,1,2.08-3.11l.11,0a2.68,2.68,0,1,1,1,5.26A2.89,2.89,0,0,1,93.13,271.17Zm9-1.77a2.72,2.72,0,0,1-2.67-2.13,2.64,2.64,0,0,1,2-3.15l.11,0a2.68,2.68,0,1,1,1.08,5.24A2.57,2.57,0,0,1,102.17,269.4Z" transform="translate(-15.54 -121.89)"/><path class="cls-1" d="M53.14,268.48a3.61,3.61,0,0,1-3.25-2,3.52,3.52,0,0,1,1.58-4.76l.14-.07a3.58,3.58,0,1,1,1.53,6.81Zm11.1-5.42a3.61,3.61,0,0,1-3.26-2,3.52,3.52,0,0,1,1.59-4.75l.14-.07a3.58,3.58,0,0,1,3.13,6.45A3.63,3.63,0,0,1,64.24,263.06Zm11.09-5.41a3.57,3.57,0,0,1-3.25-2,3.5,3.5,0,0,1,1.57-4.75l.15-.07a3.58,3.58,0,1,1,1.53,6.8Zm11.09-5.41a3.6,3.6,0,0,1-3.25-2,3.51,3.51,0,0,1,1.57-4.75l.15-.08A3.58,3.58,0,0,1,88,251.87,3.65,3.65,0,0,1,86.42,252.24Zm11.1-5.41a3.61,3.61,0,0,1-3.26-2,3.52,3.52,0,0,1,1.58-4.76L96,240a3.58,3.58,0,0,1,3.15,6.44A3.71,3.71,0,0,1,97.52,246.83Zm11.09-5.41a3.59,3.59,0,0,1-3.25-2,3.51,3.51,0,0,1,1.57-4.76l.14-.07a3.58,3.58,0,1,1,3.15,6.44A3.68,3.68,0,0,1,108.61,241.42ZM119.7,236a3.61,3.61,0,0,1-3.26-2,3.52,3.52,0,0,1,1.59-4.75l.15-.07a3.58,3.58,0,1,1,3.12,6.44A3.64,3.64,0,0,1,119.7,236Z" transform="translate(-15.54 -121.89)"/><path class="cls-1" d="M51.9,255.15a4.76,4.76,0,0,1-3.11-8.39l.16-.14A4.8,4.8,0,0,1,55,254,5,5,0,0,1,51.9,255.15Zm12.74-10.52a4.76,4.76,0,0,1-3.14-8.37l.16-.14a4.8,4.8,0,0,1,6.15,7.37A5,5,0,0,1,64.64,244.63Zm12.74-10.52a4.76,4.76,0,0,1-3.13-8.38l.17-.14A4.79,4.79,0,1,1,80.53,233,4.91,4.91,0,0,1,77.38,234.11Zm12.73-10.52a4.76,4.76,0,0,1-3.66-1.68,4.7,4.7,0,0,1,.53-6.69l.16-.14a4.8,4.8,0,1,1,6.15,7.37A5,5,0,0,1,90.11,223.59Zm12.75-10.52a4.77,4.77,0,0,1-3.13-8.39l.17-.13a4.79,4.79,0,1,1,6.11,7.39A5,5,0,0,1,102.86,213.07Zm12.73-10.52a4.76,4.76,0,0,1-3.13-8.37l.16-.14a4.8,4.8,0,1,1,6.15,7.36A4.94,4.94,0,0,1,115.59,202.55ZM128.34,192a4.76,4.76,0,0,1-3.7-1.72,4.71,4.71,0,0,1,.58-6.68l.17-.14a4.8,4.8,0,0,1,6.09,7.42A5,5,0,0,1,128.34,192Zm12.73-10.53a4.76,4.76,0,0,1-3.12-8.38l.17-.14a4.8,4.8,0,0,1,6.11,7.4A5,5,0,0,1,141.07,181.5Z" transform="translate(-15.54 -121.89)"/><path class="cls-1" d="M39.43,243.45a6.42,6.42,0,0,1-5.24-10.12l.16-.24a6.42,6.42,0,0,1,10.49,7.4l-.16.24A6.42,6.42,0,0,1,39.43,243.45Zm12.74-18.08a6.43,6.43,0,0,1-5.25-10.11l.16-.23A6.42,6.42,0,1,1,57.6,222.4l-.17.23A6.42,6.42,0,0,1,52.17,225.37Zm12.74-18.08a6.42,6.42,0,0,1-5.24-10.12l.16-.24a6.42,6.42,0,0,1,10.5,7.4l-.17.24A6.42,6.42,0,0,1,64.91,207.29Zm12.74-18.08A6.43,6.43,0,0,1,72.4,179.1l.16-.23a6.42,6.42,0,1,1,10.52,7.37l-.17.23A6.42,6.42,0,0,1,77.65,189.21Zm12.74-18.08A6.43,6.43,0,0,1,85.15,161l.17-.23a6.42,6.42,0,1,1,10.49,7.4l-.17.24A6.41,6.41,0,0,1,90.39,171.13Zm12.74-18.08a6.43,6.43,0,0,1-5.24-10.13l.17-.23a6.42,6.42,0,1,1,10.49,7.4l-.17.24A6.41,6.41,0,0,1,103.13,153.05ZM115.87,135a6.43,6.43,0,0,1-5.25-10.11l.17-.24A6.42,6.42,0,0,1,121.3,132l-.16.24A6.44,6.44,0,0,1,115.87,135Z" transform="translate(-15.54 -121.89)"/><path class="cls-2" d="M-12.89,220.63" transform="translate(-15.54 -121.89)"/><path class="cls-3" d="M171.46,233H153.13l-3.5,8.46h-9.37l17.61-39.49h9l17.66,39.49H175ZM168.59,226l-6.27-15.12L156.06,226Z" transform="translate(-15.54 -121.89)"/><path class="cls-3" d="M198.63,211.74a15.8,15.8,0,0,1,6.17-1.12v8.12c-1-.07-1.63-.11-2-.11a8,8,0,0,0-5.92,2.11q-2.15,2.12-2.15,6.35v14.33H186V211.07h8.41v4A9.86,9.86,0,0,1,198.63,211.74Z" transform="translate(-15.54 -121.89)"/><path class="cls-3" d="M256.68,214Q260,217.33,260,224v17.38h-8.8v-16q0-3.61-1.5-5.39a5.25,5.25,0,0,0-4.26-1.78,6.3,6.3,0,0,0-4.91,2q-1.8,2-1.8,6v15.23H230v-16q0-7.17-5.76-7.17a6.22,6.22,0,0,0-4.85,2c-1.2,1.34-1.81,3.33-1.81,6v15.23h-8.8V211.07h8.41v3.5a11.14,11.14,0,0,1,4.15-2.94,13.86,13.86,0,0,1,5.38-1,13,13,0,0,1,5.81,1.27,10.21,10.21,0,0,1,4.18,3.69,12.49,12.49,0,0,1,4.71-3.67,14.94,14.94,0,0,1,6.23-1.29A12.28,12.28,0,0,1,256.68,214Z" transform="translate(-15.54 -121.89)"/><path class="cls-3" d="M269.17,240.94a19.36,19.36,0,0,1-5.75-2.34l2.93-6.32a18.53,18.53,0,0,0,4.91,2.12,20.78,20.78,0,0,0,5.64.81q5.6,0,5.59-2.76a2,2,0,0,0-1.52-1.86,22.18,22.18,0,0,0-4.69-1,45.75,45.75,0,0,1-6.15-1.3,9.61,9.61,0,0,1-4.2-2.59,7.42,7.42,0,0,1-1.78-5.31,8.28,8.28,0,0,1,1.67-5.1,10.67,10.67,0,0,1,4.85-3.47,20.63,20.63,0,0,1,7.53-1.24,29.46,29.46,0,0,1,6.4.7,17.79,17.79,0,0,1,5.28,2L287,219.53a17.58,17.58,0,0,0-8.75-2.26,9,9,0,0,0-4.23.79,2.33,2.33,0,0,0-1.41,2,2,2,0,0,0,1.52,2,27.74,27.74,0,0,0,4.85,1.07,53,53,0,0,1,6.1,1.33,9.17,9.17,0,0,1,4.12,2.56,7.31,7.31,0,0,1,1.75,5.19,8,8,0,0,1-1.7,5,10.8,10.8,0,0,1-4.93,3.42,22,22,0,0,1-7.7,1.21A29.54,29.54,0,0,1,269.17,240.94Z" transform="translate(-15.54 -121.89)"/><path class="cls-3" d="M316.56,240a9,9,0,0,1-3.18,1.44,16.13,16.13,0,0,1-4,.48q-5.41,0-8.38-2.76c-2-1.85-3-4.55-3-8.13V218.51h-4.68v-6.77h4.68v-7.39h8.8v7.39h7.56v6.77h-7.56v12.36a4.12,4.12,0,0,0,1,3,3.65,3.65,0,0,0,2.79,1,5.65,5.65,0,0,0,3.55-1.13Z" transform="translate(-15.54 -121.89)"/><path class="cls-3" d="M332.61,211.74a15.88,15.88,0,0,1,6.18-1.12v8.12c-1-.07-1.63-.11-2-.11a8.08,8.08,0,0,0-5.93,2.11q-2.14,2.12-2.14,6.35v14.33H320V211.07h8.4v4A10,10,0,0,1,332.61,211.74Z" transform="translate(-15.54 -121.89)"/><path class="cls-3" d="M348.24,239.87a14.92,14.92,0,0,1-5.95-5.56,16.27,16.27,0,0,1,0-16.13,14.85,14.85,0,0,1,5.95-5.56,18.16,18.16,0,0,1,8.61-2,18,18,0,0,1,8.57,2,14.9,14.9,0,0,1,5.92,5.56,16.2,16.2,0,0,1,0,16.13,15,15,0,0,1-5.92,5.56,18.09,18.09,0,0,1-8.57,2A18.28,18.28,0,0,1,348.24,239.87Zm14.16-7.51a9.72,9.72,0,0,0,0-12.24,7.34,7.34,0,0,0-5.55-2.28,7.44,7.44,0,0,0-5.59,2.28,9.61,9.61,0,0,0,0,12.24,7.41,7.41,0,0,0,5.59,2.29A7.31,7.31,0,0,0,362.4,232.36Z" transform="translate(-15.54 -121.89)"/><path class="cls-3" d="M404.21,214q3.46,3.39,3.47,10v17.38h-8.8v-16q0-3.61-1.58-5.39a5.79,5.79,0,0,0-4.57-1.78,7,7,0,0,0-5.31,2.06q-2,2.06-2,6.12v15h-8.8V211.07h8.4v3.55a11.76,11.76,0,0,1,4.35-3,15.06,15.06,0,0,1,5.7-1A12.48,12.48,0,0,1,404.21,214Z" transform="translate(-15.54 -121.89)"/><path class="cls-3" d="M444.23,211.07v25.27q0,8.35-4.34,12.41t-12.69,4.07a31.48,31.48,0,0,1-8.35-1.08,18.21,18.21,0,0,1-6.55-3.1l3.5-6.32a14.5,14.5,0,0,0,4.85,2.51,19.34,19.34,0,0,0,5.87.93c3.05,0,5.29-.68,6.74-2.06s2.17-3.45,2.17-6.23v-1.3Q432,240,425.84,240a16.11,16.11,0,0,1-7.64-1.83,13.87,13.87,0,0,1-5.5-5.16,15.52,15.52,0,0,1,0-15.35,13.87,13.87,0,0,1,5.5-5.16,16.11,16.11,0,0,1,7.64-1.83q6.6,0,10,4.34v-3.89Zm-10.91,19.6a7.62,7.62,0,0,0,0-10.77,9,9,0,0,0-11.48,0,7.55,7.55,0,0,0,0,10.77,9,9,0,0,0,11.48,0Z" transform="translate(-15.54 -121.89)"/><path class="cls-3" d="M176.88,295.81l-.06-23.69L165.2,291.64h-4.12l-11.56-19v23.18h-8.58V256.32h7.56l14.78,24.54,14.56-24.54h7.5l.11,39.49Z" transform="translate(-15.54 -121.89)"/><path class="cls-3" d="M197.44,294.26a15,15,0,0,1-6-5.55,15.32,15.32,0,0,1,6-21.7,18.73,18.73,0,0,1,8.72-2,17,17,0,0,1,8.38,2,11.94,11.94,0,0,1,5.21,5.73l-6.82,3.67a7.46,7.46,0,0,0-6.83-4.18,7.72,7.72,0,0,0-5.7,2.26,9.53,9.53,0,0,0,0,12.3,7.76,7.76,0,0,0,5.7,2.25,7.39,7.39,0,0,0,6.83-4.17l6.82,3.72a12.1,12.1,0,0,1-5.21,5.64,16.67,16.67,0,0,1-8.38,2A18.62,18.62,0,0,1,197.44,294.26Z" transform="translate(-15.54 -121.89)"/><path class="cls-3" d="M295.75,265.46v30.35H287.4V292.2a11.59,11.59,0,0,1-4.18,3,13.06,13.06,0,0,1-5.25,1q-6,0-9.47-3.45T265,282.61V265.46h8.8v15.85q0,7.33,6.15,7.34a6.62,6.62,0,0,0,5.08-2.06q1.92-2.05,1.92-6.12v-15Z" transform="translate(-15.54 -121.89)"/><path class="cls-3" d="M302.8,259.82a4.79,4.79,0,0,1,0-7,5.62,5.62,0,0,1,3.95-1.41,5.76,5.76,0,0,1,3.95,1.36,4.35,4.35,0,0,1,1.52,3.38,4.81,4.81,0,0,1-1.52,3.64,6.19,6.19,0,0,1-7.9,0Zm-.45,5.64h8.8v30.35h-8.8Z" transform="translate(-15.54 -121.89)"/><path class="cls-3" d="M329.28,266.14a15.88,15.88,0,0,1,6.18-1.13v8.12c-1-.07-1.63-.11-2-.11a8.09,8.09,0,0,0-5.93,2.12q-2.15,2.12-2.14,6.34v14.33h-8.8V265.46H325v4A9.74,9.74,0,0,1,329.28,266.14Z" transform="translate(-15.54 -121.89)"/><path class="cls-3" d="M369.31,283.12h-23a7.15,7.15,0,0,0,2.93,4.46,9.74,9.74,0,0,0,5.76,1.63,11.63,11.63,0,0,0,4.2-.7,10.23,10.23,0,0,0,3.42-2.23l4.68,5.08q-4.29,4.9-12.53,4.91a19.74,19.74,0,0,1-9.08-2,14.71,14.71,0,0,1-6.09-5.55,15.32,15.32,0,0,1-2.15-8.07,15.53,15.53,0,0,1,2.12-8,14.87,14.87,0,0,1,5.81-5.59,17.12,17.12,0,0,1,8.27-2,16.86,16.86,0,0,1,8.06,1.92,14,14,0,0,1,5.67,5.5,16.43,16.43,0,0,1,2.06,8.32C369.48,280.86,369.43,281.65,369.31,283.12Zm-20.59-9.76a7.22,7.22,0,0,0-2.48,4.63h14.95a7.3,7.3,0,0,0-2.48-4.6,7.42,7.42,0,0,0-5-1.72A7.56,7.56,0,0,0,348.72,273.36Z" transform="translate(-15.54 -121.89)"/><path class="cls-3" d="M260,275.45v16a23.84,23.84,0,0,1-7.44,3.73,29.13,29.13,0,0,1-8.52,1.3A23.08,23.08,0,0,1,233,293.87a19.54,19.54,0,0,1-7.7-7.27,21.25,21.25,0,0,1,0-21.05,19.46,19.46,0,0,1,7.76-7.28,23.51,23.51,0,0,1,11.17-2.62,24.36,24.36,0,0,1,9.42,1.75,18.73,18.73,0,0,1,7.11,5.08l-5.87,5.41a13.57,13.57,0,0,0-10.21-4.45A13.9,13.9,0,0,0,238,265a11.29,11.29,0,0,0-4.56,4.45,14,14,0,0,0,0,13.15A11.51,11.51,0,0,0,238,287.1a13.45,13.45,0,0,0,6.63,1.61,14.75,14.75,0,0,0,7.1-1.69v-4.24h-4.86v-7.33Z" transform="translate(-15.54 -121.89)"/></svg>